<svg width="24" height="24" viewBox="0 0 24 24" fill="none" xmlns="http://www.w3.org/2000/svg">
<path d="M9.66667 11.2222H8.11111V12.7777H9.66667V11.2222ZM12.7778 11.2222H11.2222V12.7777H12.7778V11.2222ZM15.8889 11.2222H14.3333V12.7777H15.8889V11.2222ZM17.4444 5.77772H16.6667V4.22217H15.1111V5.77772H8.88889V4.22217H7.33333V5.77772H6.55556C5.69222 5.77772 5.00778 6.47772 5.00778 7.33328L5 18.2222C5 19.0777 5.69222 19.7777 6.55556 19.7777H17.4444C18.3 19.7777 19 19.0777 19 18.2222V7.33328C19 6.47772 18.3 5.77772 17.4444 5.77772ZM17.4444 18.2222H6.55556V9.66661H17.4444V18.2222Z" fill="#0A3B32"/>
</svg>
